<svg width="54" height="54" viewBox="0 0 54 54" fill="none" xmlns="http://www.w3.org/2000/svg">
<circle cx="27" cy="27" r="27" fill="#34AADF"/>
<path fill-rule="evenodd" clip-rule="evenodd" d="M21.7613 30.1053L15.9368 27.5912C15.3251 27.3266 14.9363 26.716 14.956 26.0498C14.9769 25.3835 15.4006 24.7974 16.0274 24.571C20.2791 23.0319 33.1386 18.3751 36.8645 17.0252C37.4286 16.8221 38.0589 16.9451 38.5046 17.3456C38.9503 17.7472 39.1384 18.3612 38.9956 18.9439C38.1668 22.296 35.604 32.6705 34.8217 35.8369C34.6859 36.3883 34.2715 36.8282 33.7306 36.9976C33.1886 37.1683 32.5977 37.0429 32.1718 36.668L28.2195 33.1963L25.1262 36.1619C24.6817 36.5879 24.0363 36.726 23.4559 36.5206C22.8768 36.314 22.4636 35.7986 22.3881 35.1881L21.7613 30.1053ZM32.9761 34.595L36.7578 19.2863L17.8404 26.1368L22.8338 28.2935C23.3631 28.5221 23.7322 29.0143 23.803 29.5865L24.3486 34.0135L26.634 31.8232L26.432 31.6491C26.0826 31.3508 25.8772 30.919 25.8644 30.4605C25.8505 30.002 26.0327 29.5598 26.3635 29.2418C27.6043 28.052 30.9147 24.8798 30.9147 24.8798C31.3314 24.4805 31.993 24.4944 32.3923 24.9111C32.7904 25.3267 32.7765 25.9883 32.3609 26.3876L28.1801 30.3955L28.8684 30.9851L32.9761 34.595Z" fill="white"/>
</svg>
