<svg width="26" height="22" viewBox="0 0 26 22" fill="none" xmlns="http://www.w3.org/2000/svg">
<path fill-rule="evenodd" clip-rule="evenodd" d="M7.76107 14.1053L1.9366 11.5912C1.3249 11.3266 0.936063 10.716 0.955795 10.0498C0.976688 9.38354 1.40035 8.79738 2.02714 8.57104C6.27884 7.03193 19.1384 2.37515 22.8643 1.02523C23.4284 0.82211 24.0586 0.945146 24.5044 1.34559C24.9501 1.7472 25.1381 2.36122 24.9953 2.9439C24.1666 6.29604 21.6038 16.6705 20.8214 19.8369C20.6856 20.3883 20.2713 20.8282 19.7304 20.9976C19.1883 21.1683 18.5975 21.0429 18.1715 20.668L14.2193 17.1963L11.126 20.1619C10.6814 20.5879 10.0361 20.726 9.4557 20.5206C8.87651 20.314 8.46331 19.7986 8.38787 19.1881L7.76107 14.1053ZM18.9759 18.595L22.7575 3.2863L3.84019 10.1368L8.83358 12.2935C9.36287 12.5221 9.73197 13.0143 9.80277 13.5865L10.3483 18.0135L12.6337 15.8232L12.4318 15.6491C12.0824 15.3508 11.877 14.919 11.8642 14.4605C11.8503 14.002 12.0325 13.5598 12.3633 13.2418C13.6041 12.052 16.9144 8.87979 16.9144 8.87979C17.3311 8.4805 17.9928 8.49443 18.392 8.91113C18.7902 9.32666 18.7762 9.98827 18.3607 10.3876L14.1798 14.3955L14.8681 14.9851L18.9759 18.595Z" fill="white"/>
</svg>
