<svg width="54" height="54" viewBox="0 0 54 54" fill="none" xmlns="http://www.w3.org/2000/svg">
<circle cx="27" cy="27" r="27" fill="#43D854"/>
<path d="M32.75 29.5C32.5 29.375 30.875 28.625 30.625 28.5C30.375 28.375 30.125 28.375 29.875 28.625C29.625 28.875 29.125 29.625 28.875 29.875C28.75 30.125 28.5 30.125 28.25 30C27.375 29.625 26.5 29.125 25.75 28.5C25.125 27.875 24.5 27.125 24 26.375C23.875 26.125 24 25.875 24.125 25.75C24.25 25.625 24.375 25.375 24.625 25.25C24.75 25.125 24.875 24.875 24.875 24.75C25 24.625 25 24.375 24.875 24.25C24.75 24.125 24.125 22.625 23.875 22C23.75 21.125 23.5 21.125 23.25 21.125H22.625C22.375 21.125 22 21.375 21.875 21.5C21.125 22.25 20.75 23.125 20.75 24.125C20.875 25.25 21.25 26.375 22 27.375C23.375 29.375 25.125 31 27.25 32C27.875 32.25 28.375 32.5 29 32.625C29.625 32.875 30.25 32.875 31 32.75C31.875 32.625 32.625 32 33.125 31.25C33.375 30.75 33.375 30.25 33.25 29.75L32.75 29.5ZM35.875 18.125C31 13.25 23.125 13.25 18.25 18.125C14.25 22.125 13.5 28.25 16.25 33.125L14.5 39.5L21.125 37.75C23 38.75 25 39.25 27 39.25C33.875 39.25 39.375 33.75 39.375 26.875C39.5 23.625 38.125 20.5 35.875 18.125ZM32.5 35.625C30.875 36.625 29 37.25 27 37.25C25.125 37.25 23.375 36.75 21.75 35.875L21.375 35.625L17.5 36.625L18.5 32.875L18.25 32.5C15.25 27.5 16.75 21.25 21.625 18.125C26.5 15 32.75 16.625 35.75 21.375C38.75 26.25 37.375 32.625 32.5 35.625Z" fill="white"/>
</svg>
