<svg width="374" height="276" viewBox="0 0 374 276" fill="none" xmlns="http://www.w3.org/2000/svg">
<path d="M130.502 368.92C61.1687 368.92 4.96213 312.635 4.96214 243.202C4.96214 173.769 61.1687 117.484 130.502 117.484C199.834 117.484 256.041 173.769 256.041 243.202C256.041 312.635 199.834 368.92 130.502 368.92Z" stroke="#D4CAFF"/>
<path d="M143.769 373.903C66.1931 373.903 3.30407 310.925 3.30407 233.238C3.30407 155.55 66.1931 92.5732 143.769 92.5732C221.345 92.5732 284.234 155.55 284.234 233.238C284.234 310.926 221.345 373.903 143.769 373.903Z" stroke="#D4CAFF"/>
<path d="M154.549 378.885C69.6454 378.885 0.816335 309.959 0.816338 224.934C0.816342 139.909 69.6454 70.9834 154.549 70.9834C239.452 70.9834 308.281 139.909 308.281 224.934C308.281 309.959 239.452 378.885 154.549 378.885Z" stroke="#D4CAFF"/>
<path d="M170.304 382.206C78.9893 382.206 4.96279 308.076 4.96279 216.63C4.9628 125.184 78.9893 51.0537 170.304 51.0537C261.619 51.0537 335.646 125.184 335.646 216.63C335.645 308.076 261.619 382.206 170.304 382.206Z" stroke="#D4CAFF"/>
<path d="M185.644 385.527C88.1467 385.527 9.10839 306.378 9.10839 208.741C9.10839 111.104 88.1468 31.9551 185.644 31.9551C283.141 31.9551 362.18 111.104 362.18 208.741C362.18 306.378 283.141 385.527 185.644 385.527Z" stroke="#D4CAFF"/>
<path d="M203.058 389.68C95.9434 389.68 9.10887 302.723 9.10888 195.456C9.10888 88.1879 95.9435 1.23143 203.058 1.23144C310.172 1.23144 397.007 88.1879 397.007 195.456C397.007 302.723 310.172 389.68 203.058 389.68Z" stroke="#D4CAFF"/>
</svg>
