<svg width="156" height="166" viewBox="0 0 156 166" fill="none" xmlns="http://www.w3.org/2000/svg">
<path d="M48.5657 152.61V154.479H37.845V152.61H48.5657ZM44.2043 148.045V159.432H42.217V148.045H44.2043Z" fill="#323232"/>
<path d="M11.5657 152.61V154.479H0.844971V152.61H11.5657ZM7.20435 148.045V159.432H5.21704V148.045H7.20435Z" fill="#323232"/>
<path d="M48.5657 117.61V119.479H37.845V117.61H48.5657ZM44.2043 113.045V124.432H42.217V113.045H44.2043Z" fill="#323232"/>
<path d="M83.5657 12.6104V14.4795H72.845V12.6104H83.5657ZM79.2043 8.04492V19.4316H77.217V8.04492H79.2043Z" fill="#323232"/>
<path d="M83.5657 47.6104V49.4795H72.845V47.6104H83.5657ZM79.2043 43.0449V54.4316H77.217V43.0449H79.2043Z" fill="#323232"/>
<path d="M83.5657 82.6104V84.4795H72.845V82.6104H83.5657ZM79.2043 78.0449V89.4316H77.217V78.0449H79.2043Z" fill="#33B7BC"/>
<path d="M83.5657 117.61V119.479H72.845V117.61H83.5657ZM79.2043 113.045V124.432H77.217V113.045H79.2043Z" fill="#323232"/>
<path d="M83.5657 152.61V154.479H72.845V152.61H83.5657ZM79.2043 148.045V159.432H77.217V148.045H79.2043Z" fill="#323232"/>
<path d="M118.566 12.6104V14.4795H107.845V12.6104H118.566ZM114.204 8.04492V19.4316H112.217V8.04492H114.204Z" fill="#323232"/>
<path d="M118.566 47.6104V49.4795H107.845V47.6104H118.566ZM114.204 43.0449V54.4316H112.217V43.0449H114.204Z" fill="#323232"/>
<path d="M118.566 82.6104V84.4795H107.845V82.6104H118.566ZM114.204 78.0449V89.4316H112.217V78.0449H114.204Z" fill="#323232"/>
<path d="M118.566 117.61V119.479H107.845V117.61H118.566ZM114.204 113.045V124.432H112.217V113.045H114.204Z" fill="#323232"/>
<path d="M118.566 152.61V154.479H107.845V152.61H118.566ZM114.204 148.045V159.432H112.217V148.045H114.204Z" fill="#323232"/>
<path d="M153.566 12.6104V14.4795H142.845V12.6104H153.566ZM149.204 8.04492V19.4316H147.217V8.04492H149.204Z" fill="#33B7BC"/>
<path d="M153.566 47.6104V49.4795H142.845V47.6104H153.566ZM149.204 43.0449V54.4316H147.217V43.0449H149.204Z" fill="#323232"/>
<path d="M153.566 82.6104V84.4795H142.845V82.6104H153.566ZM149.204 78.0449V89.4316H147.217V78.0449H149.204Z" fill="#323232"/>
<path d="M153.566 117.61V119.479H142.845V117.61H153.566ZM149.204 113.045V124.432H147.217V113.045H149.204Z" fill="#323232"/>
<path d="M153.566 152.61V154.479H142.845V152.61H153.566ZM149.204 148.045V159.432H147.217V148.045H149.204Z" fill="#323232"/>
</svg>
