<svg width="147" height="65" viewBox="0 0 147 65" fill="none" xmlns="http://www.w3.org/2000/svg">
<g clip-path="url(#clip0_2302_20)">
<path fill-rule="evenodd" clip-rule="evenodd" d="M48.3235 42.0054V11.3011H53.5112V42.0054H48.3235ZM89.6066 42.0054V11.3011H94.7943V42.0054H89.6066ZM124.323 16.7724H115.465V42.0054H110.277V16.7724H101.991L99.0519 11.3011H127.466L134.311 25.0643L141.155 11.3011H147L136.924 31.4113L136.883 42.0054H131.697V31.4959L124.322 16.7726L124.323 16.7724ZM15.9654 16.7724V42.0054H10.7777V16.7724H2.62539L-0.189453 11.3011H33.5882C36.1925 11.3011 38.7469 11.9773 40.6701 14.0012C42.5078 15.9348 43.2425 18.4381 43.2425 21.1974C43.2425 23.4936 42.7305 25.687 41.36 27.4662C40.1356 29.0556 38.5053 29.9847 36.7009 30.4685L44.9433 42.0054H38.5278L30.7475 30.8807H27.1374V42.0054H21.9495V25.6902C25.6737 25.6902 29.3973 25.7509 33.1213 25.7509C34.401 25.7509 35.8231 25.5022 36.8025 24.5218C37.674 23.6498 38.0158 22.5187 38.0158 21.2405C38.0158 19.9742 37.6803 18.8449 36.805 17.9829C35.8226 17.0156 34.3956 16.7729 33.1213 16.7729C27.4026 16.7729 21.6842 16.7729 15.9656 16.7729L15.9654 16.7724ZM66.6143 20.8133L66.5511 42.0052H61.3631V16.7721V16.7075L58.4564 11.3009H67.1484L79.7199 32.5535L79.7629 11.3009H84.9509V42.005H79.1271L66.6141 20.813L66.6143 20.8133Z" fill="#FEFEFE"/>
</g>
<g clip-path="url(#clip1_2302_20)">
<path d="M24.4513 63.4579L22.2107 60.1682H21.2366V63.4579H19.4831V58.4206C20.6521 58.4206 21.8211 58.4206 23.0875 58.4206C23.5746 58.4206 23.8668 58.3178 24.159 58.1121C24.159 57.9065 24.3539 57.5981 24.3539 57.1869C24.3539 56.7757 24.2565 56.4673 23.9642 56.2617C23.7694 56.0561 23.3797 55.9533 22.8926 55.9533C21.7237 55.9533 20.5547 55.9533 19.2883 55.9533V54.2056H23.0875C24.0616 54.2056 24.7435 54.514 25.328 55.028C25.8151 55.5421 26.1074 56.2617 26.1074 57.1869C26.1074 57.9065 25.9125 58.5234 25.6203 59.0374C25.2306 59.5514 24.841 59.8598 24.159 59.9626L26.5944 63.4579H24.4513ZM4.48111 63.5607C3.21471 63.5607 2.14314 63.1495 1.2664 62.2243C0.389662 61.2991 0 60.1682 0 58.729C0 57.3925 0.389662 56.2617 1.2664 55.3364C2.14314 54.4112 3.21471 54 4.48111 54C5.55268 54 6.42942 54.3084 7.20875 54.9252C7.98807 55.5421 8.47515 56.3645 8.7674 57.2897H6.81909C6.62425 56.8785 6.33201 56.4673 5.94235 56.1589C5.55268 55.9533 5.06561 55.7477 4.48111 55.7477C3.70179 55.7477 3.01988 56.0561 2.5328 56.5701C2.04573 57.1869 1.75348 57.9065 1.75348 58.729C1.75348 59.5514 2.04573 60.271 2.5328 60.8879C3.01988 61.4019 3.70179 61.7103 4.48111 61.7103C4.96819 61.7103 5.45527 61.6075 5.84493 61.2991C6.33201 61.0935 6.62425 60.6822 6.81909 60.271H8.7674C8.47515 61.1963 7.98807 62.0187 7.20875 62.6355C6.42942 63.2523 5.55268 63.5607 4.48111 63.5607ZM16.171 63.3551L15.3917 61.1963H11.8847L11.1054 63.3551H9.25447L12.5666 54.1028H14.8072L18.1193 63.3551H16.171ZM12.4692 59.4486H14.8072L13.6382 56.0561L12.4692 59.4486ZM36.4334 63.4579L34.0954 60.0654H33.1213V63.3551H31.3678V58.4206C32.5368 58.4206 33.7058 58.4206 34.9722 58.4206C35.4592 58.4206 35.7515 58.3178 36.0437 58.1121C36.2386 57.9065 36.4334 57.5981 36.4334 57.1869C36.4334 56.7757 36.336 56.4673 36.0437 56.2617C35.8489 56.0561 35.4592 55.9533 34.9722 55.9533C33.8032 55.9533 32.6342 55.9533 31.3678 55.9533V54.2056H35.0696C36.0437 54.2056 36.7256 54.514 37.3101 55.028C37.7972 55.5421 38.0895 56.2617 38.0895 57.1869C38.0895 57.9065 37.8946 58.5234 37.6024 59.0374C37.2127 59.5514 36.8231 59.8598 36.1412 59.9626L38.5765 63.4579H36.4334ZM45.7853 55.9533H41.6938V57.8037H45.493V59.5514H41.6938V61.5047H45.7853V63.2523H39.9404V54H45.7853V55.9533ZM52.7992 54.2056H54.5527V63.4579H52.507L48.7078 56.9813L48.9026 59.5514V63.4579H47.1491V54.2056H49.1948L52.994 60.6822L52.7992 58.1121V54.2056ZM62.6382 54.2056V55.9533H60.1054V63.3551H58.3519V55.9533H55.8191V54.2056H62.6382ZM69.165 63.4579L68.3857 61.2991H64.8787L64.0994 63.4579H62.2485L65.5606 54.2056H67.8012L71.1133 63.4579H69.165ZM65.5606 59.4486H67.8986L66.7296 56.0561L65.5606 59.4486ZM74.2306 61.6075H77.9324V63.3551H72.3797V54.1028H74.1332V61.6075H74.2306ZM88.4533 58.4206C88.9404 58.6262 89.2326 58.8318 89.5249 59.243C89.7197 59.6542 89.9145 60.1682 89.9145 60.6822C89.9145 61.5047 89.6223 62.1215 89.1352 62.6355C88.6481 63.1495 87.8688 63.3551 86.9921 63.3551H83.0954V57.8037H86.6998C87.3817 57.8037 87.7714 57.4953 87.7714 56.8785C87.7714 56.5701 87.674 56.2617 87.4791 56.1589C87.2843 56.0561 86.9921 55.9533 86.6024 55.9533C85.4334 55.9533 84.167 55.9533 82.998 55.9533V54.2056H86.7972C87.5765 54.2056 88.2585 54.4112 88.7455 54.8224C89.2326 55.2336 89.4274 55.8505 89.4274 56.5701C89.5249 57.4953 89.1352 58.1121 88.4533 58.4206ZM86.7972 61.6075C87.1869 61.6075 87.5765 61.5047 87.674 61.2991C87.8688 61.0935 87.9662 60.8879 87.9662 60.5794C87.9662 60.271 87.8688 59.9626 87.674 59.757C87.4791 59.5514 87.1869 59.5514 86.6998 59.5514H84.7515V61.6075H86.7972ZM92.1551 55.4393C93.0318 54.514 94.1034 54 95.4672 54C96.7336 54 97.8052 54.4112 98.6819 55.3364C99.5587 56.2617 99.9483 57.3925 99.9483 58.729C99.9483 60.0654 99.5587 61.1963 98.6819 62.1215C97.8052 63.0467 96.7336 63.4579 95.4672 63.4579C94.2008 63.4579 93.1292 63.0467 92.2525 62.1215C91.3757 61.1963 90.9861 60.0654 90.9861 58.729C90.8887 57.4953 91.2783 56.3645 92.1551 55.4393ZM97.4155 56.6729C96.9284 56.1589 96.2465 55.8505 95.4672 55.8505C94.6879 55.8505 94.006 56.1589 93.5189 56.6729C93.0318 57.1869 92.7396 57.9065 92.7396 58.8318C92.7396 59.6542 93.0318 60.3738 93.5189 60.9907C94.006 61.5047 94.6879 61.8131 95.4672 61.8131C96.2465 61.8131 96.9284 61.5047 97.4155 60.9907C97.9026 60.4766 98.1948 59.757 98.1948 58.8318C98.1948 57.9065 97.9026 57.1869 97.4155 56.6729ZM106.962 54.2056H108.813V59.757C108.813 60.9907 108.521 62.0187 107.839 62.6355C107.157 63.3551 106.28 63.6636 105.209 63.6636C104.137 63.6636 103.26 63.3551 102.579 62.6355C101.897 61.9159 101.604 60.9907 101.604 59.757V54.2056H103.455V59.6542C103.455 61.0935 104.04 61.8131 105.209 61.8131C106.378 61.8131 106.962 61.0935 106.962 59.6542V54.2056ZM116.801 54.2056V55.9533H114.268V63.3551H112.515V55.9533H109.982V54.2056H116.801ZM118.068 63.4579V54.2056H119.821V63.4579H118.068ZM130.537 58.8318C130.537 60.1682 130.147 61.2991 129.27 62.1215L130.537 63.8692L129.173 65L127.907 63.1495C127.322 63.4579 126.64 63.5607 125.958 63.5607C124.692 63.5607 123.62 63.1495 122.744 62.2243C121.867 61.2991 121.477 60.1682 121.477 58.8318C121.477 57.4953 121.867 56.3645 122.744 55.4393C123.62 54.514 124.692 54.1028 125.958 54.1028C127.225 54.1028 128.296 54.514 129.173 55.4393C130.05 56.3645 130.537 57.4953 130.537 58.8318ZM124.01 56.6729C123.523 57.1869 123.231 57.9065 123.231 58.8318C123.231 59.6542 123.523 60.3738 124.01 60.9907C124.497 61.5047 125.179 61.8131 125.958 61.8131C126.738 61.8131 127.419 61.5047 127.907 60.9907C128.394 60.4766 128.686 59.757 128.686 58.8318C128.686 58.0093 128.394 57.2897 127.907 56.6729C127.419 56.1589 126.738 55.8505 125.958 55.8505C125.179 55.8505 124.497 56.0561 124.01 56.6729ZM137.453 54.2056H139.304V59.757C139.304 60.9907 139.012 62.0187 138.33 62.6355C137.648 63.3551 136.771 63.6636 135.7 63.6636C134.628 63.6636 133.752 63.3551 133.07 62.6355C132.388 61.9159 132.095 60.9907 132.095 59.757V54.2056H133.946V59.6542C133.946 61.0935 134.531 61.8131 135.7 61.8131C136.869 61.8131 137.453 61.0935 137.453 59.6542V54.2056ZM147 55.9533H142.909V57.8037H146.708V59.5514H142.909V61.5047H147V63.2523H141.155V54H147V55.9533Z" fill="white"/>
</g>
<defs>
<clipPath id="clip0_2302_20">
<rect width="147" height="65" fill="white"/>
</clipPath>
<clipPath id="clip1_2302_20">
<rect width="147" height="11" fill="white" transform="translate(0 54)"/>
</clipPath>
</defs>
</svg>
